# xmcd
#
# Track frame offsets:
#	182
#	13737
#	25585
#	41520
#	56287
#	72097
#	85692
#	98830
#	112655
#	126665
#	142107
#
# Disc length: 2156 seconds
# Revision: 3
# Processed by: cddbd v1.5.2PL0 Copyright (c) Steve Scherf et al.
# Submitted via: dBpowerAMP V12.0
#
DISCID=88086a0b
DTITLE=Victoria Shaw - In Full View
DYEAR=1995
DGENRE=Country
TTITLE0=Lucky Me Lucky You
TTITLE1=Love On Down The Line
TTITLE2=Forgiveness
TTITLE3=Good As Gone
TTITLE4=You Don't Know Love
TTITLE5=Bring My Baby Home
TTITLE6=Cry Wolf
TTITLE7=(A Day In The Life Of A) Single Mother
TTITLE8=Tears Dry
TTITLE9=Where Your Road Leads
TTITLE10=Small Talk
EXTD=
EXTT0=
EXTT1=
EXTT2=
EXTT3=
EXTT4=
EXTT5=
EXTT6=
EXTT7=
EXTT8=
EXTT9=
EXTT10=
PLAYORDER=
